<svg width="1401" height="635" viewBox="0 0 1401 635" fill="none" xmlns="http://www.w3.org/2000/svg">
<rect x="57" y="121.603" width="274.27" height="290.685" transform="rotate(-26.3192 57 121.603)" fill="#D9D9D9"/>
<rect x="87.1902" y="122.855" width="223.502" height="222.503" transform="rotate(-26.3192 87.1902 122.855)" fill="black" fill-opacity="0.8"/>
<rect x="504.01" y="96.3724" width="590" height="126" transform="rotate(-6.03655 504.01 96.3724)" fill="#FFFBDC"/>
<rect x="815.168" y="246" width="590" height="217.359" transform="rotate(7.44607 815.168 246)" fill="#FFFBDC"/>
<rect y="420.304" width="590" height="217.359" transform="rotate(-9.59115 0 420.304)" fill="#FFFBDC"/>
<path d="M264.5 354.5C339 361 449.5 351.5 472 261C494.5 170.5 464 95 416.5 63C369 31 100 -63.5 57 137.5C22.6 298.3 199 363.833 291.5 376.5" stroke="#FF0000" stroke-width="3"/>
</svg>
